<svg width="135" height="40" viewBox="0 0 135 40" fill="none" xmlns="http://www.w3.org/2000/svg">
<path d="M130.197 40H4.729C2.122 40 0 37.872 0 35.267V4.726C0 2.12 2.122 0 4.729 0H130.197C132.803 0 135 2.12 135 4.726V35.267C135 37.872 132.803 40 130.197 40Z" fill="black"/>
<path d="M134.032 35.2681C134.032 37.3841 132.318 39.0981 130.198 39.0981H4.72902C2.61002 39.0981 0.890015 37.3841 0.890015 35.2681V4.72514C0.890015 2.61014 2.61002 0.890137 4.72902 0.890137H130.197C132.318 0.890137 134.031 2.61014 134.031 4.72514L134.032 35.2681Z" fill="black"/>
<path d="M30.128 19.7842C30.099 16.5612 32.767 14.9932 32.889 14.9202C31.378 12.7172 29.036 12.4162 28.213 12.3922C26.246 12.1852 24.338 13.5692 23.336 13.5692C22.314 13.5692 20.771 12.4122 19.108 12.4462C16.968 12.4792 14.966 13.7182 13.868 15.6422C11.602 19.5652 13.292 25.3302 15.463 28.5012C16.549 30.0542 17.818 31.7882 19.479 31.7272C21.104 31.6602 21.711 30.6912 23.672 30.6912C25.615 30.6912 26.185 31.7272 27.879 31.6882C29.623 31.6602 30.721 30.1282 31.769 28.5612C33.024 26.7812 33.528 25.0282 33.548 24.9382C33.507 24.9242 30.161 23.6472 30.128 19.7842Z" fill="white"/>
<path d="M26.928 10.3058C27.802 9.2128 28.4 7.7258 28.234 6.2168C26.969 6.2728 25.387 7.0918 24.476 8.1608C23.67 9.1028 22.95 10.6468 23.136 12.0988C24.557 12.2048 26.016 11.3818 26.928 10.3058Z" fill="white"/>
<path d="M53.645 31.5043H51.374L50.13 27.5953H45.806L44.621 31.5043H42.41L46.694 18.1963H49.34L53.645 31.5043ZM49.755 25.9553L48.63 22.4803C48.511 22.1253 48.288 21.2893 47.959 19.9733H47.919C47.788 20.5393 47.577 21.3753 47.287 22.4803L46.182 25.9553H49.755V25.9553Z" fill="white"/>
<path d="M64.662 26.5879C64.662 28.2199 64.221 29.5099 63.339 30.4569C62.549 31.2999 61.568 31.7209 60.397 31.7209C59.133 31.7209 58.225 31.2669 57.672 30.3589H57.632V35.4139H55.5V25.0669C55.5 24.0409 55.473 22.9879 55.421 21.9079H57.296L57.415 23.4289H57.455C58.166 22.2829 59.245 21.7109 60.693 21.7109C61.825 21.7109 62.77 22.1579 63.526 23.0529C64.284 23.9489 64.662 25.1269 64.662 26.5879ZM62.49 26.6659C62.49 25.7319 62.28 24.9619 61.858 24.3559C61.397 23.7239 60.778 23.4079 60.002 23.4079C59.476 23.4079 58.998 23.5839 58.571 23.9309C58.143 24.2809 57.863 24.7379 57.732 25.3039C57.666 25.5679 57.633 25.7839 57.633 25.9539V27.5539C57.633 28.2519 57.847 28.8409 58.275 29.3219C58.703 29.8029 59.259 30.0429 59.943 30.0429C60.746 30.0429 61.371 29.7329 61.818 29.1149C62.266 28.4959 62.49 27.6799 62.49 26.6659Z" fill="white"/>
<path d="M75.6989 26.5879C75.6989 28.2199 75.2579 29.5099 74.3749 30.4569C73.5859 31.2999 72.6049 31.7209 71.4339 31.7209C70.1699 31.7209 69.2619 31.2669 68.7099 30.3589H68.6699V35.4139H66.5379V25.0669C66.5379 24.0409 66.5109 22.9879 66.4589 21.9079H68.3339L68.4529 23.4289H68.4929C69.2029 22.2829 70.2819 21.7109 71.7309 21.7109C72.8619 21.7109 73.8069 22.1579 74.5649 23.0529C75.3199 23.9489 75.6989 25.1269 75.6989 26.5879ZM73.5269 26.6659C73.5269 25.7319 73.3159 24.9619 72.8939 24.3559C72.4329 23.7239 71.8159 23.4079 71.0389 23.4079C70.5119 23.4079 70.0349 23.5839 69.6069 23.9309C69.1789 24.2809 68.8999 24.7379 68.7689 25.3039C68.7039 25.5679 68.6699 25.7839 68.6699 25.9539V27.5539C68.6699 28.2519 68.8839 28.8409 69.3099 29.3219C69.7379 29.8019 70.2939 30.0429 70.9799 30.0429C71.7829 30.0429 72.4079 29.7329 72.8549 29.1149C73.3029 28.4959 73.5269 27.6799 73.5269 26.6659Z" fill="white"/>
<path d="M88.039 27.772C88.039 28.904 87.646 29.825 86.857 30.536C85.99 31.313 84.783 31.701 83.232 31.701C81.8 31.701 80.652 31.425 79.783 30.872L80.277 29.095C81.213 29.661 82.24 29.945 83.359 29.945C84.162 29.945 84.787 29.763 85.236 29.401C85.683 29.039 85.906 28.553 85.906 27.947C85.906 27.407 85.722 26.952 85.353 26.583C84.986 26.214 84.373 25.871 83.517 25.554C81.187 24.685 80.023 23.412 80.023 21.738C80.023 20.644 80.431 19.747 81.248 19.049C82.062 18.35 83.148 18.001 84.506 18.001C85.717 18.001 86.723 18.212 87.526 18.633L86.993 20.371C86.243 19.963 85.395 19.759 84.446 19.759C83.696 19.759 83.11 19.944 82.69 20.312C82.335 20.641 82.157 21.042 82.157 21.517C82.157 22.043 82.36 22.478 82.768 22.82C83.123 23.136 83.768 23.478 84.704 23.847C85.849 24.308 86.69 24.847 87.231 25.465C87.77 26.081 88.039 26.852 88.039 27.772Z" fill="white"/>
<path d="M95.088 23.5081H92.738V28.1671C92.738 29.3521 93.152 29.9441 93.982 29.9441C94.363 29.9441 94.679 29.9111 94.929 29.8451L94.988 31.4641C94.568 31.6211 94.015 31.7001 93.33 31.7001C92.488 31.7001 91.83 31.4431 91.355 30.9301C90.882 30.4161 90.644 29.5541 90.644 28.3431V23.5061H89.244V21.9061H90.644V20.1491L92.738 19.5171V21.9061H95.088V23.5081Z" fill="white"/>
<path d="M105.691 26.6274C105.691 28.1024 105.269 29.3134 104.427 30.2604C103.544 31.2354 102.372 31.7214 100.911 31.7214C99.503 31.7214 98.382 31.2544 97.546 30.3204C96.71 29.3864 96.292 28.2074 96.292 26.7864C96.292 25.2994 96.722 24.0814 97.585 23.1344C98.446 22.1864 99.608 21.7124 101.069 21.7124C102.477 21.7124 103.61 22.1794 104.465 23.1144C105.283 24.0214 105.691 25.1924 105.691 26.6274ZM103.479 26.6964C103.479 25.8114 103.29 25.0524 102.907 24.4194C102.46 23.6534 101.821 23.2714 100.993 23.2714C100.136 23.2714 99.485 23.6544 99.038 24.4194C98.655 25.0534 98.466 25.8244 98.466 26.7364C98.466 27.6214 98.655 28.3804 99.038 29.0124C99.499 29.7784 100.143 30.1604 100.974 30.1604C101.788 30.1604 102.427 29.7704 102.888 28.9924C103.281 28.3474 103.479 27.5804 103.479 26.6964Z" fill="white"/>
<path d="M112.621 23.7829C112.41 23.7439 112.185 23.7239 111.949 23.7239C111.199 23.7239 110.619 24.0069 110.211 24.5739C109.856 25.0739 109.678 25.7059 109.678 26.4689V31.5039H107.547L107.567 24.9299C107.567 23.8239 107.54 22.8169 107.487 21.9089H109.344L109.422 23.7449H109.481C109.706 23.1139 110.061 22.6059 110.547 22.2249C111.022 21.8819 111.535 21.7109 112.088 21.7109C112.285 21.7109 112.463 21.7249 112.621 21.7499V23.7829Z" fill="white"/>
<path d="M122.156 26.2524C122.156 26.6344 122.131 26.9564 122.078 27.2194H115.682C115.707 28.1674 116.016 28.8924 116.61 29.3924C117.149 29.8394 117.846 30.0634 118.702 30.0634C119.649 30.0634 120.513 29.9124 121.29 29.6094L121.624 31.0894C120.716 31.4854 119.644 31.6824 118.407 31.6824C116.919 31.6824 115.751 31.2444 114.901 30.3694C114.053 29.4944 113.628 28.3194 113.628 26.8454C113.628 25.3984 114.023 24.1934 114.814 23.2324C115.642 22.2064 116.761 21.6934 118.169 21.6934C119.552 21.6934 120.599 22.2064 121.31 23.2324C121.873 24.0474 122.156 25.0554 122.156 26.2524ZM120.123 25.6994C120.137 25.0674 119.998 24.5214 119.709 24.0604C119.34 23.4674 118.773 23.1714 118.01 23.1714C117.313 23.1714 116.746 23.4604 116.313 24.0404C115.958 24.5014 115.747 25.0544 115.682 25.6984H120.123V25.6994Z" fill="white"/>
<path d="M49.05 10.0087C49.05 11.1857 48.697 12.0717 47.992 12.6667C47.339 13.2157 46.411 13.4907 45.209 13.4907C44.613 13.4907 44.103 13.4647 43.676 13.4127V6.9817C44.233 6.8917 44.833 6.8457 45.481 6.8457C46.626 6.8457 47.489 7.0947 48.071 7.5927C48.723 8.1557 49.05 8.9607 49.05 10.0087ZM47.945 10.0377C47.945 9.2747 47.743 8.6897 47.339 8.2817C46.935 7.8747 46.345 7.6707 45.568 7.6707C45.238 7.6707 44.957 7.6927 44.724 7.7387V12.6277C44.853 12.6477 45.089 12.6567 45.432 12.6567C46.234 12.6567 46.853 12.4337 47.289 11.9877C47.725 11.5417 47.945 10.8917 47.945 10.0377Z" fill="white"/>
<path d="M54.9089 11.037C54.9089 11.762 54.7019 12.356 54.2879 12.822C53.8539 13.301 53.2789 13.54 52.5609 13.54C51.8689 13.54 51.3179 13.311 50.9069 12.851C50.4969 12.392 50.2919 11.813 50.2919 11.115C50.2919 10.385 50.5029 9.78605 50.9269 9.32105C51.3509 8.85605 51.9209 8.62305 52.6389 8.62305C53.3309 8.62305 53.8869 8.85205 54.3079 9.31105C54.7079 9.75705 54.9089 10.333 54.9089 11.037ZM53.8219 11.071C53.8219 10.636 53.7279 10.263 53.5409 9.95205C53.3209 9.57605 53.0079 9.38805 52.6009 9.38805C52.1799 9.38805 51.8599 9.57605 51.6399 9.95205C51.4519 10.263 51.3589 10.642 51.3589 11.09C51.3589 11.525 51.4529 11.898 51.6399 12.209C51.8669 12.585 52.1829 12.773 52.5909 12.773C52.9909 12.773 53.3049 12.582 53.5309 12.199C53.7249 11.882 53.8219 11.506 53.8219 11.071Z" fill="white"/>
<path d="M62.7649 8.71875L61.2899 13.4327H60.3299L59.7189 11.3857C59.5639 10.8747 59.4379 10.3667 59.3399 9.86275H59.3209C59.2299 10.3807 59.1039 10.8877 58.9419 11.3857L58.2929 13.4327H57.3219L55.9349 8.71875H57.0119L57.5449 10.9597C57.6739 11.4897 57.7799 11.9947 57.8649 12.4727H57.8839C57.9619 12.0787 58.0909 11.5767 58.2729 10.9698L58.9419 8.71975H59.7959L60.4369 10.9217C60.5919 11.4587 60.7179 11.9757 60.8149 12.4737H60.8439C60.9149 11.9887 61.0219 11.4717 61.1639 10.9217L61.7359 8.71975H62.7649V8.71875Z" fill="white"/>
<path d="M68.198 13.4331H67.15V10.7331C67.15 9.90112 66.834 9.48512 66.2 9.48512C65.889 9.48512 65.638 9.59912 65.443 9.82812C65.25 10.0571 65.152 10.3271 65.152 10.6361V13.4321H64.104V10.0661C64.104 9.65212 64.091 9.20312 64.066 8.71712H64.987L65.036 9.45412H65.065C65.187 9.22512 65.369 9.03612 65.608 8.88512C65.892 8.70912 66.21 8.62012 66.558 8.62012C66.998 8.62012 67.364 8.76212 67.655 9.04712C68.017 9.39612 68.198 9.91712 68.198 10.6091V13.4331V13.4331Z" fill="white"/>
<path d="M71.088 13.4327H70.041V6.55566H71.088V13.4327Z" fill="white"/>
<path d="M77.258 11.037C77.258 11.762 77.051 12.356 76.637 12.822C76.203 13.301 75.627 13.54 74.91 13.54C74.217 13.54 73.666 13.311 73.256 12.851C72.846 12.392 72.641 11.813 72.641 11.115C72.641 10.385 72.852 9.78605 73.276 9.32105C73.7 8.85605 74.27 8.62305 74.987 8.62305C75.68 8.62305 76.235 8.85205 76.657 9.31105C77.057 9.75705 77.258 10.333 77.258 11.037ZM76.17 11.071C76.17 10.636 76.076 10.263 75.889 9.95205C75.67 9.57605 75.356 9.38805 74.95 9.38805C74.528 9.38805 74.208 9.57605 73.989 9.95205C73.801 10.263 73.708 10.642 73.708 11.09C73.708 11.525 73.802 11.898 73.989 12.209C74.216 12.585 74.532 12.773 74.94 12.773C75.34 12.773 75.653 12.582 75.879 12.199C76.074 11.882 76.17 11.506 76.17 11.071Z" fill="white"/>
<path d="M82.33 13.433H81.389L81.311 12.89H81.282C80.96 13.323 80.501 13.54 79.905 13.54C79.46 13.54 79.1 13.397 78.829 13.113C78.583 12.855 78.46 12.534 78.46 12.153C78.46 11.577 78.7 11.138 79.183 10.834C79.665 10.53 80.343 10.381 81.216 10.388V10.3C81.216 9.67905 80.89 9.36905 80.237 9.36905C79.772 9.36905 79.362 9.48605 79.008 9.71805L78.795 9.03005C79.233 8.75905 79.774 8.62305 80.412 8.62305C81.644 8.62305 82.262 9.27305 82.262 10.573V12.309C82.262 12.78 82.285 13.155 82.33 13.433ZM81.242 11.813V11.086C80.086 11.066 79.508 11.383 79.508 12.036C79.508 12.282 79.574 12.466 79.709 12.589C79.844 12.712 80.016 12.773 80.221 12.773C80.451 12.773 80.666 12.7 80.862 12.555C81.059 12.409 81.18 12.224 81.225 11.997C81.236 11.946 81.242 11.884 81.242 11.813Z" fill="white"/>
<path d="M88.2849 13.4327H87.3549L87.3059 12.6757H87.2769C86.9799 13.2517 86.4739 13.5397 85.7629 13.5397C85.1949 13.5397 84.7219 13.3167 84.3469 12.8707C83.9719 12.4247 83.7849 11.8457 83.7849 11.1347C83.7849 10.3717 83.9879 9.75366 84.3959 9.28166C84.7909 8.84166 85.2749 8.62166 85.8509 8.62166C86.4839 8.62166 86.9269 8.83466 87.1789 9.26166H87.1989V6.55566H88.2479V12.1627C88.2479 12.6217 88.2599 13.0447 88.2849 13.4327ZM87.1989 11.4447V10.6587C87.1989 10.5227 87.1889 10.4127 87.1699 10.3287C87.1109 10.0767 86.9839 9.86466 86.7909 9.69366C86.5959 9.52266 86.3609 9.43666 86.0899 9.43666C85.6989 9.43666 85.3929 9.59166 85.1679 9.90266C84.9449 10.2137 84.8319 10.6107 84.8319 11.0957C84.8319 11.5617 84.9389 11.9397 85.1539 12.2307C85.3809 12.5407 85.6869 12.6957 86.0699 12.6957C86.4139 12.6957 86.6889 12.5667 86.8979 12.3077C87.0999 12.0687 87.1989 11.7807 87.1989 11.4447Z" fill="white"/>
<path d="M97.2481 11.037C97.2481 11.762 97.0411 12.356 96.6271 12.822C96.1931 13.301 95.6191 13.54 94.9001 13.54C94.2091 13.54 93.6581 13.311 93.2461 12.851C92.8361 12.392 92.6311 11.813 92.6311 11.115C92.6311 10.385 92.8421 9.78605 93.2661 9.32105C93.6901 8.85605 94.2601 8.62305 94.9791 8.62305C95.6701 8.62305 96.2271 8.85205 96.6471 9.31105C97.0471 9.75705 97.2481 10.333 97.2481 11.037ZM96.1621 11.071C96.1621 10.636 96.0681 10.263 95.8811 9.95205C95.6601 9.57605 95.3481 9.38805 94.9401 9.38805C94.5201 9.38805 94.2001 9.57605 93.9791 9.95205C93.7911 10.263 93.6981 10.642 93.6981 11.09C93.6981 11.525 93.7921 11.898 93.9791 12.209C94.2061 12.585 94.5221 12.773 94.9301 12.773C95.3301 12.773 95.6451 12.582 95.8711 12.199C96.0641 11.882 96.1621 11.506 96.1621 11.071Z" fill="white"/>
<path d="M102.883 13.4331H101.836V10.7331C101.836 9.90112 101.52 9.48512 100.885 9.48512C100.574 9.48512 100.323 9.59912 100.129 9.82812C99.935 10.0571 99.838 10.3271 99.838 10.6361V13.4321H98.789V10.0661C98.789 9.65212 98.777 9.20312 98.752 8.71712H99.672L99.721 9.45412H99.75C99.873 9.22512 100.055 9.03612 100.293 8.88512C100.578 8.70912 100.895 8.62012 101.244 8.62012C101.683 8.62012 102.049 8.76212 102.34 9.04712C102.703 9.39612 102.883 9.91712 102.883 10.6091V13.4331V13.4331Z" fill="white"/>
<path d="M109.936 9.50343H108.782V11.7934C108.782 12.3754 108.987 12.6664 109.393 12.6664C109.581 12.6664 109.737 12.6504 109.86 12.6174L109.887 13.4124C109.68 13.4904 109.408 13.5294 109.073 13.5294C108.659 13.5294 108.337 13.4034 108.104 13.1514C107.87 12.8994 107.754 12.4754 107.754 11.8804V9.50343H107.065V8.71843H107.754V7.85443L108.781 7.54443V8.71743H109.935V9.50343H109.936Z" fill="white"/>
<path d="M115.484 13.4327H114.435V10.7527C114.435 9.90766 114.119 9.48466 113.486 9.48466C113 9.48466 112.668 9.72966 112.486 10.2197C112.455 10.3227 112.437 10.4487 112.437 10.5967V13.4317H111.39V6.55566H112.437V9.39666H112.457C112.787 8.87966 113.26 8.62166 113.873 8.62166C114.307 8.62166 114.666 8.76366 114.951 9.04866C115.306 9.40366 115.484 9.93166 115.484 10.6297V13.4327V13.4327Z" fill="white"/>
<path d="M121.207 10.8528C121.207 11.0408 121.193 11.1988 121.168 11.3278H118.025C118.039 11.7938 118.189 12.1488 118.48 12.3948C118.746 12.6148 119.089 12.7248 119.509 12.7248C119.974 12.7248 120.398 12.6508 120.78 12.5018L120.944 13.2298C120.497 13.4238 119.971 13.5208 119.362 13.5208C118.632 13.5208 118.057 13.3058 117.641 12.8758C117.223 12.4458 117.016 11.8688 117.016 11.1448C117.016 10.4338 117.209 9.84177 117.598 9.36977C118.004 8.86577 118.553 8.61377 119.246 8.61377C119.924 8.61377 120.439 8.86577 120.787 9.36977C121.068 9.76977 121.207 10.2648 121.207 10.8528ZM120.207 10.5818C120.215 10.2708 120.146 10.0028 120.004 9.77677C119.822 9.48577 119.545 9.33977 119.17 9.33977C118.828 9.33977 118.549 9.48177 118.336 9.76677C118.162 9.99377 118.059 10.2648 118.025 10.5818H120.207Z" fill="white"/>
</svg>
